# xmcd
#
# Track frame offsets:
#	182
#	12952
#	24855
#	34932
#	47882
#	60202
#	74675
#	90005
#	104845
#	114920
#	131547
#	147032
#	159810
#	171075
#	184987
#
# Disc length: 2662 seconds
# Revision: 3
# Processed by: cddbd v1.5.2PL0 Copyright (c) Steve Scherf et al.
# Submitted via: dBpowerAMP V12.0
#
DISCID=bb0a640f
DTITLE=Renée Martel - Les Grandes Chansons
DYEAR=1993
DGENRE=Country
TTITLE0=Liverpool
TTITLE1=Le Bateau du Bonheur
TTITLE2=À demain my darling
TTITLE3=Quand un Bateau Passe
TTITLE4=Viens Changer Ma Vie
TTITLE5=Un Amour Qui Ne Veut Pas Mourir
TTITLE6=Darling
TTITLE7=Si on Pouvait Recommencer
TTITLE8=Mon Roman D'Amour
TTITLE9=Cowgirl Dorée
TTITLE10=Tu N'es Plus Là
TTITLE11=Prends Ma Main
TTITLE12=Je Vais à Londres
TTITLE13=Nos Jeux D'Enfants
TTITLE14=Je Reviens
EXTD=
EXTT0=
EXTT1=
EXTT2=
EXTT3=
EXTT4=
EXTT5=
EXTT6=
EXTT7=
EXTT8=
EXTT9=
EXTT10=
EXTT11=
EXTT12=
EXTT13=
EXTT14=
PLAYORDER=
